<?xml version="1.0" encoding="utf-8"?>
<!-- Generator: Adobe Illustrator 21.0.0, SVG Export Plug-In . SVG Version: 6.00 Build 0)  -->
<svg version="1.1" id="Layer_1" xmlns="http://www.w3.org/2000/svg" xmlns:xlink="http://www.w3.org/1999/xlink" x="0px" y="0px"
	 viewBox="0 0 576 576" style="enable-background:new 0 0 576 576;" xml:space="preserve">
<style type="text/css">
	.st0{fill:#F6F6F6;}
	.st1{fill:none;stroke:#61B7E2;stroke-width:0.5;stroke-miterlimit:10;}
	.st2{fill:#FFFFFF;}
</style>
<rect x="0.5" y="0.5" class="st0" width="576" height="576"/>
<path class="st1" d="M449.7,262.8"/>
<path class="st1" d="M288.7,340.8"/>
<path class="st1" d="M384.8,416.6"/>
<path class="st1" d="M449.7,262.8"/>
<path class="st2" d="M449.7,262.8V79.7l0,0h-318c-2.5,0-4.5,2-4.5,4.5V262c0,0.6,0.1,1.2,0.3,1.7L219,483.6c1.9,4.7,8.6,4.7,10.5,0
	l54.8-132.1c1.5-3.7,6.8-3.7,8.3,0l54.8,132.1c1.9,4.7,8.6,4.7,10.5,0l91.8-221"/>
<path class="st0" d="M384.6,152.2l-0.1,110.7l0,0l-26.4,64.4c-2,4.8-8.7,4.8-10.7,0l-26.4-64.6l-0.1-0.1l0.7-110.4l-0.7,0l64.3,0"/>
<path class="st0" d="M192.8,152.2l0.1,110.7l0,0l26.4,64.4c2,4.8,8.7,4.8,10.7,0l26.4-64.6l0.1-0.1l-0.7-110.4l0.7,0l-64.3,0"/>
</svg>
