<?xml version="1.0" encoding="utf-8"?>
<!-- Generator: Adobe Illustrator 23.0.2, SVG Export Plug-In . SVG Version: 6.00 Build 0)  -->
<svg version="1.1" id="Layer_1" xmlns="http://www.w3.org/2000/svg" xmlns:xlink="http://www.w3.org/1999/xlink" x="0px" y="0px"
	 viewBox="0 0 780 496" style="enable-background:new 0 0 780 496;" xml:space="preserve">
<style type="text/css">
	.st0{fill:#F7EDE8;}
	.st1{fill:#FFFFFF;}
</style>
<rect x="-0.5" y="-0.29" class="st0" width="779.72" height="496"/>
<g>
	<g>
		<g>
			<path class="st1" d="M194.22,115.73c0-0.63,0.37-1.15,1.1-1.55l3.39-1.67c0.43-0.28,0.86-0.45,1.27-0.5
				c0.42-0.05,0.95-0.07,1.59-0.07h5.63c0.33,0,0.61,0.1,0.85,0.3c0.23,0.2,0.35,0.46,0.35,0.8v34.82c0,0.73-0.39,1.1-1.17,1.1
				h-7.08c-0.42,0-0.7-0.11-0.86-0.34c-0.16-0.22-0.24-0.46-0.24-0.71v-27.47l-3.41,1.69c-0.08,0.03-0.17,0.05-0.25,0.04
				c-0.08-0.01-0.14,0.02-0.17,0.09c-0.32,0-0.56-0.12-0.74-0.35c-0.17-0.23-0.26-0.51-0.26-0.82V115.73z"/>
			<path class="st1" d="M219.29,139.11c0.45,0.45,0.93,0.83,1.46,1.13c0.52,0.31,1.03,0.56,1.51,0.75c0.48,0.19,0.91,0.33,1.27,0.41
				c0.37,0.08,0.61,0.13,0.75,0.13c0.32,0,0.72-0.01,1.21-0.04c0.49-0.03,0.96-0.1,1.41-0.22c0.45-0.13,0.83-0.33,1.16-0.61
				c0.32-0.28,0.49-0.68,0.49-1.2c0-0.46-0.09-0.83-0.27-1.11c-0.18-0.27-0.45-0.51-0.8-0.7c-0.35-0.19-0.78-0.36-1.28-0.51
				c-0.51-0.15-1.08-0.32-1.71-0.52c-1.99-0.53-3.64-1.17-4.94-1.92c-1.3-0.75-2.32-1.58-3.08-2.5c-0.76-0.92-1.28-1.92-1.58-2.98
				c-0.3-1.06-0.45-2.19-0.45-3.37c0-1.38,0.27-2.63,0.82-3.76c0.55-1.13,1.33-2.1,2.34-2.9c1.01-0.81,2.23-1.43,3.64-1.87
				c1.41-0.44,2.98-0.66,4.71-0.66c1.05,0,2.03,0.09,2.94,0.26c0.91,0.17,1.79,0.45,2.62,0.82c0.83,0.37,1.64,0.86,2.43,1.45
				c0.79,0.59,1.57,1.29,2.36,2.11c0.28,0.33,0.43,0.64,0.44,0.93s-0.18,0.6-0.56,0.93c-0.65,0.53-1.27,1.06-1.86,1.57
				c-0.59,0.52-1.2,1.09-1.83,1.72c-0.2,0.17-0.4,0.27-0.6,0.31c-0.2,0.04-0.39,0.04-0.57-0.01c-0.18-0.05-0.36-0.13-0.52-0.25
				c-0.17-0.12-0.32-0.26-0.45-0.42c-0.58-0.65-1.25-1.08-1.99-1.31c-0.75-0.22-1.45-0.34-2.09-0.34c-0.81,0-1.46,0.14-1.94,0.42
				c-0.48,0.28-0.71,0.72-0.67,1.3c0.03,0.43,0.19,0.77,0.49,1.01c0.29,0.24,0.65,0.44,1.07,0.59c0.42,0.15,0.87,0.27,1.35,0.36
				c0.47,0.09,0.91,0.2,1.31,0.31c1.5,0.48,2.87,1.01,4.11,1.57c1.25,0.57,2.33,1.26,3.24,2.08c0.91,0.82,1.62,1.81,2.13,2.95
				c0.51,1.15,0.76,2.54,0.76,4.19c0,1.65-0.33,3.12-0.98,4.41c-0.66,1.3-1.56,2.38-2.71,3.27c-1.15,0.88-2.5,1.55-4.08,2.02
				c-1.57,0.46-3.26,0.7-5.07,0.7c-1.03,0-2.08-0.09-3.14-0.27c-1.06-0.18-2.09-0.48-3.09-0.89c-1-0.41-1.94-0.93-2.84-1.57
				c-0.9-0.64-1.69-1.42-2.39-2.33c-0.18-0.23-0.32-0.48-0.41-0.74s-0.13-0.51-0.12-0.76c0.01-0.25,0.06-0.48,0.15-0.69
				c0.09-0.21,0.24-0.39,0.44-0.54l3.21-3.22c0.4-0.33,0.75-0.45,1.06-0.35S218.81,138.64,219.29,139.11z"/>
			<path class="st1" d="M245.34,112.36c0-0.51,0.17-0.9,0.51-1.16c0.34-0.26,0.83-0.5,1.46-0.74l5.66-1.97
				c0.08-0.02,0.16-0.02,0.24-0.02c0.07,0,0.15,0,0.21,0c0.61,0,1.03,0.18,1.23,0.54c0.21,0.36,0.31,0.83,0.31,1.41l-0.02,7.85h4.16
				c0.53,0,0.96,0.16,1.3,0.47c0.33,0.32,0.5,0.79,0.5,1.42v4.81c0,0.7-0.17,1.21-0.5,1.53c-0.33,0.32-0.76,0.49-1.3,0.49h-4.16
				l0.02,20.04c0,0.63-0.18,1.11-0.55,1.43c-0.37,0.32-0.87,0.49-1.52,0.49h-5.63c-1.28,0-1.92-0.64-1.92-1.92L245.31,127h-1.82
				c-1.28,0-1.92-0.67-1.92-2.02v-4.81c0-1.26,0.64-1.89,1.92-1.89h1.82L245.34,112.36z"/>
			<path class="st1" d="M281,113.09c0-0.35,0.09-0.63,0.27-0.83s0.46-0.31,0.82-0.31h15.93c1.15,0,2.23,0.16,3.24,0.47
				c1.01,0.32,1.94,0.75,2.79,1.31c0.85,0.56,1.61,1.22,2.29,1.99c0.68,0.77,1.26,1.61,1.73,2.51c0.47,0.9,0.83,1.84,1.08,2.83
				c0.25,0.99,0.37,1.99,0.37,3c0,1.5-0.27,2.96-0.81,4.39c-0.54,1.43-1.31,2.7-2.31,3.81c-1,1.11-2.19,2.01-3.59,2.7
				c-1.4,0.69-2.94,1.04-4.64,1.06h-7.55v11.86c0,0.71-0.38,1.07-1.15,1.07h-7.4c-0.33,0-0.6-0.09-0.8-0.26
				c-0.2-0.17-0.3-0.44-0.3-0.81V113.09z M299.77,124c0-0.5-0.09-1-0.26-1.5c-0.17-0.5-0.43-0.94-0.76-1.33
				c-0.33-0.39-0.74-0.71-1.21-0.96c-0.47-0.25-1.01-0.37-1.61-0.37h-5.28v8.33h5.28c0.6,0,1.14-0.12,1.62-0.36
				c0.48-0.24,0.89-0.55,1.21-0.93c0.32-0.38,0.57-0.82,0.75-1.32C299.69,125.05,299.77,124.54,299.77,124z"/>
			<path class="st1" d="M313.93,109.8c0-0.53,0.13-0.98,0.4-1.35c0.27-0.37,0.72-0.55,1.37-0.55h6.11c0.17,0,0.34,0.05,0.52,0.14
				c0.18,0.09,0.35,0.22,0.51,0.39c0.16,0.17,0.29,0.37,0.4,0.6c0.11,0.23,0.16,0.49,0.16,0.77v37.24c0,0.63-0.18,1.11-0.54,1.43
				c-0.36,0.32-0.82,0.49-1.38,0.49h-5.78c-0.65,0-1.11-0.16-1.37-0.49c-0.27-0.32-0.4-0.8-0.4-1.43V109.8z"/>
			<path class="st1" d="M361.96,147.11c0,0.28-0.05,0.55-0.15,0.81c-0.1,0.26-0.27,0.46-0.5,0.61c-0.18,0.18-0.4,0.3-0.65,0.35
				c-0.25,0.05-0.46,0.07-0.65,0.07h-4.91c-0.35,0-0.63-0.05-0.85-0.14c-0.22-0.09-0.39-0.22-0.52-0.39
				c-0.13-0.17-0.25-0.37-0.34-0.61c-0.09-0.24-0.19-0.5-0.29-0.79l-0.72-1.87c-0.45,0.45-0.94,0.93-1.47,1.43
				c-0.53,0.51-1.12,0.98-1.76,1.41c-0.64,0.43-1.33,0.79-2.08,1.08c-0.75,0.29-1.54,0.44-2.39,0.44c-1.51,0-2.96-0.19-4.35-0.57
				c-1.39-0.38-2.68-0.93-3.89-1.63c-1.21-0.71-2.3-1.55-3.28-2.54c-0.98-0.99-1.82-2.09-2.53-3.3c-0.71-1.21-1.25-2.52-1.63-3.93
				c-0.38-1.4-0.57-2.87-0.57-4.4c0-2.31,0.42-4.46,1.27-6.44c0.85-1.99,2-3.71,3.47-5.18c1.46-1.47,3.18-2.62,5.16-3.46
				c1.98-0.84,4.1-1.26,6.36-1.26c1.03,0,1.98,0.15,2.84,0.46c0.86,0.31,1.65,0.71,2.36,1.21c0.71,0.5,1.35,1.06,1.92,1.69
				c0.57,0.63,1.08,1.27,1.53,1.92l0.97-3.02c0.17-0.42,0.3-0.75,0.41-1.01c0.11-0.26,0.22-0.45,0.35-0.57
				c0.12-0.12,0.28-0.21,0.46-0.25c0.18-0.04,0.44-0.06,0.77-0.06h3.71c0.18,0,0.4,0.02,0.65,0.08c0.25,0.05,0.46,0.17,0.65,0.35
				c0.23,0.18,0.4,0.39,0.5,0.62c0.1,0.23,0.15,0.5,0.15,0.8V147.11z M337.41,133.15c0,1.1,0.17,2.12,0.51,3.08
				c0.34,0.96,0.83,1.78,1.46,2.48c0.63,0.7,1.39,1.25,2.28,1.66c0.89,0.41,1.87,0.61,2.95,0.61c1.11,0,2.15-0.2,3.1-0.61
				c0.96-0.41,1.79-0.96,2.49-1.66c0.71-0.7,1.26-1.52,1.66-2.48c0.4-0.96,0.6-1.98,0.6-3.08c0-1.06-0.2-2.08-0.6-3.04
				c-0.4-0.96-0.95-1.81-1.66-2.54c-0.71-0.73-1.54-1.31-2.49-1.73c-0.96-0.42-1.99-0.63-3.1-0.63c-1.08,0-2.06,0.21-2.95,0.63
				c-0.89,0.42-1.65,1-2.28,1.73c-0.63,0.73-1.12,1.58-1.46,2.54C337.58,131.07,337.41,132.09,337.41,133.15z"/>
			<path class="st1" d="M388.21,139.21c0.23-0.17,0.45-0.27,0.66-0.31c0.21-0.04,0.37-0.06,0.49-0.06c0.28,0,0.54,0.06,0.77,0.17
				c0.23,0.12,0.47,0.37,0.72,0.75l2.79,4.21c0.08,0.13,0.16,0.28,0.24,0.45c0.07,0.17,0.11,0.3,0.11,0.4
				c0,0.38-0.12,0.69-0.36,0.93c-0.24,0.24-0.5,0.45-0.78,0.64c-1.36,0.95-2.85,1.71-4.47,2.28c-1.62,0.57-3.34,0.86-5.15,0.86
				c-1.5,0-2.94-0.19-4.32-0.57c-1.39-0.38-2.68-0.93-3.88-1.63c-1.2-0.71-2.29-1.55-3.29-2.54c-1-0.99-1.84-2.09-2.54-3.3
				c-0.7-1.21-1.24-2.52-1.63-3.93c-0.39-1.4-0.59-2.87-0.59-4.4c0-1.53,0.2-3,0.59-4.41c0.39-1.41,0.93-2.72,1.63-3.93
				c0.7-1.2,1.54-2.3,2.54-3.29c1-0.99,2.09-1.83,3.29-2.53c1.2-0.7,2.49-1.24,3.88-1.62c1.39-0.38,2.83-0.57,4.32-0.57
				c1.81,0,3.49,0.24,5.02,0.72c1.54,0.48,2.98,1.2,4.32,2.14l-0.07-0.07c0.37,0.22,0.66,0.47,0.87,0.76
				c0.22,0.29,0.32,0.65,0.32,1.08c0,0.3-0.1,0.61-0.3,0.92l-2.22,3.76c-0.47,0.81-1.03,1.22-1.69,1.22c-0.15,0-0.33-0.04-0.55-0.11
				c-0.22-0.08-0.46-0.2-0.72-0.39c-0.73-0.48-1.52-0.88-2.36-1.18c-0.84-0.31-1.73-0.46-2.68-0.46c-1.05,0-2.01,0.21-2.89,0.63
				c-0.88,0.42-1.63,1-2.26,1.73c-0.62,0.73-1.11,1.58-1.46,2.54c-0.35,0.96-0.52,1.98-0.52,3.04c0,1.1,0.17,2.12,0.52,3.08
				s0.83,1.78,1.46,2.48c0.62,0.7,1.37,1.25,2.26,1.66c0.88,0.41,1.84,0.61,2.89,0.61c0.95,0,1.84-0.17,2.67-0.5
				C386.67,140.15,387.46,139.72,388.21,139.21z"/>
			<path class="st1" d="M424.2,145.17c-1.46,1.35-3.11,2.4-4.94,3.15c-1.83,0.76-3.76,1.13-5.81,1.13c-2.28,0-4.43-0.42-6.46-1.25
				c-2.03-0.83-3.81-1.98-5.33-3.45c-1.53-1.47-2.74-3.2-3.64-5.2c-0.9-1.99-1.35-4.16-1.35-6.51c0-1.46,0.18-2.88,0.54-4.25
				c0.36-1.37,0.86-2.65,1.52-3.85c0.66-1.2,1.45-2.3,2.39-3.3c0.94-1.01,1.99-1.87,3.15-2.58c1.16-0.71,2.43-1.27,3.79-1.67
				s2.8-0.6,4.31-0.6c1.38,0,2.72,0.18,4.01,0.55c1.3,0.37,2.51,0.88,3.65,1.55c1.14,0.66,2.18,1.46,3.13,2.39
				c0.95,0.93,1.76,1.95,2.44,3.05c0.68,1.11,1.21,2.28,1.58,3.54c0.37,1.25,0.56,2.55,0.56,3.88c0,0.86-0.01,1.57-0.04,2.12
				c-0.02,0.55-0.15,0.98-0.39,1.31c-0.23,0.32-0.62,0.55-1.16,0.67c-0.54,0.12-1.33,0.19-2.38,0.19h-17.95
				c0.17,1.06,0.5,1.95,1.01,2.67c0.51,0.71,1.09,1.28,1.76,1.71c0.66,0.42,1.37,0.73,2.12,0.91c0.75,0.18,1.45,0.27,2.12,0.27
				c0.6,0,1.21-0.06,1.84-0.19c0.63-0.12,1.24-0.29,1.83-0.5c0.59-0.21,1.13-0.45,1.62-0.72c0.49-0.27,0.88-0.56,1.18-0.86
				c0.27-0.22,0.49-0.38,0.69-0.49c0.19-0.11,0.39-0.16,0.61-0.16c0.22,0,0.44,0.07,0.66,0.22c0.22,0.15,0.48,0.37,0.76,0.65
				l2.64,2.99c0.18,0.22,0.3,0.41,0.35,0.59c0.05,0.17,0.08,0.35,0.08,0.54c0,0.33-0.09,0.62-0.27,0.86
				C424.67,144.77,424.45,144.98,424.2,145.17z M412.21,124.4c-0.65,0-1.28,0.13-1.88,0.39c-0.61,0.26-1.18,0.6-1.71,1.03
				c-0.53,0.43-1.01,0.92-1.43,1.47c-0.42,0.55-0.77,1.1-1.04,1.67h12.74c-0.35-0.65-0.73-1.25-1.13-1.8
				c-0.41-0.55-0.87-1.03-1.4-1.45c-0.52-0.42-1.12-0.74-1.79-0.97C413.9,124.52,413.11,124.4,412.21,124.4z"/>
			<path class="st1" d="M195.14,190.31c0-1.76,0.22-3.45,0.67-5.07c0.45-1.62,1.09-3.14,1.92-4.56c0.83-1.42,1.82-2.71,2.98-3.88
				c1.16-1.16,2.44-2.16,3.85-2.98c1.41-0.82,2.93-1.46,4.55-1.92c1.62-0.46,3.31-0.69,5.08-0.69c1.75,0,3.43,0.23,5.06,0.69
				c1.63,0.46,3.15,1.1,4.56,1.92c1.41,0.82,2.7,1.82,3.87,2.98c1.16,1.16,2.16,2.45,2.98,3.88c0.82,1.42,1.46,2.94,1.92,4.56
				c0.46,1.62,0.69,3.31,0.69,5.07c0,1.76-0.23,3.45-0.69,5.07c-0.46,1.62-1.1,3.13-1.92,4.54c-0.82,1.4-1.82,2.68-2.98,3.84
				c-1.16,1.16-2.45,2.15-3.87,2.98c-1.41,0.83-2.93,1.47-4.56,1.92c-1.63,0.45-3.32,0.67-5.06,0.67c-1.76,0-3.45-0.22-5.08-0.67
				c-1.62-0.45-3.14-1.09-4.55-1.92c-1.41-0.83-2.7-1.82-3.85-2.98c-1.16-1.15-2.15-2.43-2.98-3.84c-0.83-1.4-1.47-2.92-1.92-4.54
				C195.36,193.76,195.14,192.07,195.14,190.31z M204.78,190.28c0,1.38,0.23,2.67,0.7,3.86c0.46,1.2,1.12,2.24,1.95,3.13
				c0.84,0.89,1.83,1.59,2.97,2.09c1.15,0.51,2.41,0.76,3.78,0.76c1.38,0,2.64-0.25,3.8-0.76c1.15-0.51,2.15-1.21,2.99-2.09
				c0.84-0.89,1.49-1.93,1.95-3.13c0.46-1.2,0.7-2.48,0.7-3.86c0-1.36-0.23-2.65-0.7-3.85c-0.46-1.21-1.12-2.26-1.95-3.15
				c-0.84-0.9-1.83-1.6-2.99-2.12c-1.15-0.51-2.42-0.77-3.8-0.77c-1.38,0-2.64,0.26-3.78,0.77c-1.14,0.52-2.14,1.22-2.97,2.12
				c-0.84,0.9-1.49,1.95-1.95,3.15C205.02,187.64,204.78,188.92,204.78,190.28z"/>
			<path class="st1" d="M236.21,179.59c-0.33-0.68-0.39-1.26-0.19-1.74c0.21-0.48,0.7-0.72,1.48-0.72h6.38
				c0.43,0,0.81,0.12,1.13,0.35c0.32,0.23,0.55,0.57,0.69,1c0.28,0.88,0.59,1.87,0.93,2.97c0.34,1.1,0.7,2.22,1.07,3.38
				c0.37,1.16,0.74,2.3,1.11,3.44c0.37,1.14,0.7,2.19,1.01,3.14c0.31,0.96,0.58,1.79,0.82,2.49c0.24,0.71,0.42,1.21,0.54,1.51
				l5.28-16.92c0.22-0.53,0.46-0.89,0.74-1.07c0.27-0.18,0.66-0.27,1.16-0.27h6.56c0.48,0,0.85,0.06,1.1,0.17
				c0.25,0.12,0.42,0.27,0.5,0.47c0.08,0.2,0.1,0.43,0.05,0.69c-0.05,0.26-0.13,0.53-0.25,0.81l-11.86,28.44
				c-0.18,0.3-0.4,0.55-0.65,0.76c-0.25,0.21-0.62,0.31-1.12,0.31h-2.97c-0.66,0-1.13-0.1-1.41-0.29c-0.27-0.19-0.48-0.45-0.61-0.78
				L236.21,179.59z"/>
			<path class="st1" d="M294.89,204.99c-1.46,1.35-3.11,2.4-4.94,3.15c-1.83,0.76-3.76,1.13-5.81,1.13c-2.28,0-4.43-0.42-6.46-1.25
				c-2.03-0.83-3.81-1.98-5.33-3.45c-1.53-1.47-2.74-3.2-3.64-5.2c-0.9-1.99-1.35-4.16-1.35-6.51c0-1.46,0.18-2.88,0.54-4.25
				c0.36-1.37,0.86-2.65,1.52-3.85c0.66-1.2,1.45-2.3,2.39-3.3c0.94-1.01,1.99-1.87,3.15-2.58c1.16-0.71,2.43-1.27,3.79-1.67
				c1.36-0.4,2.8-0.6,4.31-0.6c1.38,0,2.72,0.18,4.01,0.55s2.51,0.88,3.65,1.55c1.14,0.66,2.18,1.46,3.13,2.39
				c0.95,0.93,1.76,1.95,2.44,3.05c0.68,1.11,1.21,2.28,1.58,3.54c0.37,1.25,0.56,2.55,0.56,3.88c0,0.86-0.01,1.57-0.04,2.12
				c-0.02,0.55-0.15,0.98-0.39,1.31c-0.23,0.32-0.62,0.55-1.16,0.67c-0.54,0.12-1.33,0.19-2.38,0.19h-17.95
				c0.17,1.06,0.5,1.95,1.01,2.67c0.51,0.71,1.09,1.28,1.76,1.71c0.66,0.42,1.37,0.73,2.12,0.91c0.75,0.18,1.45,0.27,2.12,0.27
				c0.6,0,1.21-0.06,1.84-0.19c0.63-0.12,1.24-0.29,1.83-0.5c0.59-0.21,1.13-0.45,1.62-0.72c0.49-0.27,0.89-0.56,1.18-0.86
				c0.27-0.22,0.49-0.38,0.69-0.49c0.19-0.11,0.39-0.16,0.61-0.16c0.22,0,0.44,0.07,0.66,0.22c0.22,0.15,0.48,0.37,0.76,0.65
				l2.64,2.99c0.18,0.22,0.3,0.41,0.35,0.59c0.05,0.17,0.07,0.35,0.07,0.54c0,0.33-0.09,0.62-0.27,0.86
				C295.35,204.59,295.14,204.81,294.89,204.99z M282.9,184.22c-0.65,0-1.28,0.13-1.88,0.39c-0.61,0.26-1.18,0.6-1.71,1.03
				c-0.53,0.43-1.01,0.92-1.43,1.47c-0.42,0.55-0.77,1.1-1.03,1.67h12.74c-0.35-0.65-0.73-1.25-1.13-1.8
				c-0.41-0.55-0.87-1.03-1.4-1.45c-0.52-0.42-1.12-0.74-1.79-0.97C284.58,184.34,283.8,184.22,282.9,184.22z"/>
			<path class="st1" d="M303.66,178.97c0-0.28,0.06-0.55,0.19-0.81c0.12-0.26,0.28-0.46,0.46-0.61c0.43-0.28,0.88-0.42,1.35-0.42
				h3.76c0.31,0,0.56,0.06,0.75,0.17c0.18,0.12,0.34,0.27,0.46,0.45c0.13,0.18,0.23,0.39,0.32,0.62c0.09,0.23,0.2,0.46,0.34,0.7
				c0.03,0.07,0.1,0.23,0.2,0.49c0.1,0.26,0.21,0.54,0.32,0.85c0.12,0.31,0.23,0.6,0.34,0.87c0.11,0.27,0.18,0.45,0.21,0.54
				c0.5-0.55,0.98-1.13,1.43-1.73c0.46-0.61,0.94-1.17,1.46-1.68c0.51-0.52,1.09-0.94,1.72-1.27s1.38-0.5,2.24-0.5
				c0.9,0,1.7,0.07,2.41,0.2c0.71,0.13,1.37,0.33,2.01,0.59s1.26,0.59,1.88,0.98c0.62,0.4,1.3,0.86,2.03,1.4
				c1.15,0.61,1.36,1.53,0.65,2.74l-2.27,3.86c-0.33,0.5-0.74,0.81-1.22,0.92c-0.48,0.12-1.01,0.04-1.57-0.22
				c-0.72-0.7-1.44-1.22-2.18-1.56c-0.74-0.34-1.58-0.51-2.53-0.51c-0.65,0-1.22,0.09-1.71,0.27c-0.49,0.18-0.93,0.44-1.33,0.77
				c-0.4,0.33-0.77,0.73-1.12,1.2c-0.35,0.47-0.7,0.98-1.05,1.55v18.05c0,0.63-0.15,1.11-0.46,1.43c-0.31,0.32-0.82,0.49-1.53,0.49
				h-5.61c-1.3,0-1.94-0.64-1.94-1.92V178.97z"/>
			<path class="st1" d="M362.51,206.93c0,0.28-0.05,0.55-0.15,0.81c-0.1,0.26-0.27,0.46-0.5,0.61c-0.18,0.18-0.4,0.3-0.65,0.35
				c-0.25,0.05-0.47,0.07-0.65,0.07h-4.91c-0.35,0-0.63-0.05-0.85-0.14c-0.22-0.09-0.39-0.22-0.52-0.39
				c-0.13-0.17-0.25-0.37-0.34-0.61c-0.09-0.24-0.19-0.5-0.29-0.79l-0.72-1.87c-0.45,0.45-0.94,0.93-1.47,1.43
				c-0.53,0.51-1.12,0.98-1.76,1.41c-0.64,0.43-1.33,0.79-2.08,1.08c-0.75,0.29-1.55,0.44-2.39,0.44c-1.51,0-2.96-0.19-4.35-0.57
				c-1.39-0.38-2.68-0.93-3.89-1.63c-1.21-0.71-2.3-1.55-3.28-2.54c-0.98-0.99-1.82-2.09-2.53-3.3c-0.71-1.21-1.25-2.52-1.63-3.93
				c-0.38-1.4-0.57-2.87-0.57-4.4c0-2.31,0.42-4.46,1.27-6.44c0.85-1.99,2-3.71,3.46-5.18c1.46-1.47,3.18-2.62,5.16-3.46
				c1.98-0.84,4.1-1.26,6.36-1.26c1.03,0,1.98,0.15,2.84,0.46c0.86,0.31,1.65,0.71,2.36,1.21c0.71,0.5,1.35,1.06,1.92,1.69
				c0.57,0.63,1.08,1.27,1.53,1.92l0.97-3.02c0.17-0.42,0.3-0.75,0.41-1.01c0.11-0.26,0.22-0.45,0.35-0.57
				c0.12-0.12,0.28-0.21,0.46-0.25c0.18-0.04,0.44-0.06,0.77-0.06h3.71c0.18,0,0.4,0.02,0.65,0.08c0.25,0.05,0.46,0.17,0.65,0.35
				c0.23,0.18,0.4,0.39,0.5,0.62c0.1,0.23,0.15,0.5,0.15,0.8V206.93z M337.96,192.97c0,1.1,0.17,2.12,0.51,3.08
				c0.34,0.96,0.83,1.78,1.46,2.48c0.63,0.7,1.39,1.25,2.28,1.66c0.89,0.41,1.87,0.61,2.95,0.61c1.11,0,2.15-0.2,3.1-0.61
				c0.96-0.41,1.79-0.96,2.49-1.66c0.71-0.7,1.26-1.52,1.66-2.48c0.4-0.96,0.6-1.98,0.6-3.08c0-1.06-0.2-2.08-0.6-3.04
				c-0.4-0.96-0.95-1.81-1.66-2.54s-1.54-1.31-2.49-1.73c-0.96-0.42-1.99-0.63-3.1-0.63c-1.08,0-2.07,0.21-2.95,0.63
				c-0.89,0.42-1.65,1-2.28,1.73s-1.12,1.58-1.46,2.54C338.13,190.9,337.96,191.91,337.96,192.97z"/>
			<path class="st1" d="M368.49,169.62c0-0.53,0.13-0.98,0.4-1.35c0.27-0.37,0.72-0.55,1.37-0.55h6.11c0.17,0,0.34,0.05,0.52,0.14
				c0.18,0.09,0.35,0.22,0.51,0.39c0.16,0.17,0.29,0.37,0.4,0.6c0.11,0.23,0.16,0.49,0.16,0.77v37.24c0,0.63-0.18,1.11-0.54,1.43
				c-0.36,0.32-0.82,0.49-1.38,0.49h-5.78c-0.65,0-1.1-0.16-1.37-0.49c-0.27-0.32-0.4-0.8-0.4-1.43V169.62z"/>
			<path class="st1" d="M383.95,169.62c0-0.53,0.13-0.98,0.4-1.35c0.27-0.37,0.72-0.55,1.37-0.55h6.11c0.17,0,0.34,0.05,0.52,0.14
				c0.18,0.09,0.35,0.22,0.51,0.39c0.16,0.17,0.29,0.37,0.4,0.6c0.11,0.23,0.16,0.49,0.16,0.77v37.24c0,0.63-0.18,1.11-0.54,1.43
				c-0.36,0.32-0.82,0.49-1.38,0.49h-5.78c-0.65,0-1.1-0.16-1.37-0.49c-0.27-0.32-0.4-0.8-0.4-1.43V169.62z"/>
			<path class="st1" d="M198.93,292.5c0.03-0.3,0.15-0.56,0.35-0.77c0.2-0.22,0.48-0.32,0.85-0.32h8.62c0.61,0,1.01,0.32,1.2,0.95
				l6.78,22.63l6.83-22.63c0.23-0.63,0.66-0.95,1.27-0.95h8.52c0.3,0,0.57,0.1,0.81,0.31c0.24,0.21,0.38,0.47,0.41,0.78
				c0.58,5.85,1.18,11.65,1.78,17.41c0.61,5.76,1.2,11.56,1.78,17.41v0.12c0,0.65-0.37,0.97-1.1,0.97h-7.05
				c-0.76,0-1.16-0.37-1.2-1.1l-2.17-19.27l-5.61,19.39c-0.03,0.17-0.15,0.37-0.36,0.6c-0.21,0.23-0.41,0.35-0.61,0.35h-6.56
				c-0.2,0-0.41-0.11-0.64-0.34c-0.22-0.22-0.34-0.43-0.36-0.61l-5.61-19.34l-2.17,19.22c-0.03,0.73-0.44,1.1-1.22,1.1h-7.05
				c-0.71,0-1.07-0.37-1.07-1.1L198.93,292.5z"/>
			<path class="st1" d="M241.18,312.62c0-1.53,0.19-3,0.59-4.41c0.39-1.41,0.94-2.72,1.65-3.93c0.71-1.2,1.55-2.3,2.54-3.29
				c0.99-0.99,2.09-1.83,3.3-2.53c1.21-0.7,2.52-1.24,3.93-1.62c1.4-0.38,2.87-0.57,4.4-0.57c2.26,0,4.38,0.42,6.37,1.26
				c1.99,0.84,3.71,1.99,5.18,3.46c1.47,1.47,2.63,3.2,3.49,5.18c0.86,1.99,1.28,4.13,1.28,6.44c0,1.53-0.2,3-0.59,4.4
				c-0.39,1.4-0.94,2.71-1.65,3.93c-0.71,1.21-1.55,2.31-2.54,3.3c-0.99,0.99-2.09,1.84-3.3,2.54c-1.21,0.71-2.51,1.25-3.9,1.63
				c-1.39,0.38-2.84,0.57-4.35,0.57c-1.53,0-3-0.19-4.4-0.57c-1.4-0.38-2.71-0.93-3.93-1.63c-1.21-0.71-2.31-1.55-3.3-2.54
				c-0.99-0.99-1.84-2.09-2.54-3.3c-0.71-1.21-1.26-2.52-1.65-3.93C241.37,315.61,241.18,314.14,241.18,312.62z M250.27,312.62
				c0,1.1,0.17,2.12,0.51,3.08c0.34,0.96,0.82,1.78,1.45,2.48c0.62,0.7,1.38,1.25,2.27,1.66c0.89,0.41,1.89,0.61,3,0.61
				c1.08,0,2.06-0.2,2.93-0.61c0.87-0.41,1.61-0.96,2.22-1.66c0.61-0.7,1.07-1.52,1.4-2.48c0.32-0.96,0.49-1.98,0.49-3.08
				c0-1.06-0.16-2.08-0.49-3.04c-0.32-0.96-0.79-1.81-1.4-2.54c-0.61-0.73-1.35-1.31-2.22-1.73c-0.87-0.42-1.85-0.63-2.93-0.63
				c-1.11,0-2.12,0.21-3,0.63c-0.89,0.42-1.65,1-2.27,1.73c-0.62,0.73-1.11,1.58-1.45,2.54
				C250.44,310.54,250.27,311.55,250.27,312.62z"/>
			<path class="st1" d="M283.6,318.57c0.45,0.45,0.93,0.83,1.46,1.13c0.52,0.31,1.03,0.56,1.51,0.75c0.48,0.19,0.91,0.33,1.27,0.41
				c0.37,0.08,0.61,0.13,0.75,0.13c0.32,0,0.72-0.01,1.21-0.04c0.49-0.03,0.96-0.1,1.41-0.22c0.45-0.13,0.83-0.33,1.16-0.61
				c0.32-0.28,0.49-0.68,0.49-1.2c0-0.46-0.09-0.83-0.27-1.11c-0.18-0.27-0.45-0.51-0.8-0.7c-0.35-0.19-0.78-0.36-1.28-0.51
				c-0.51-0.15-1.08-0.32-1.71-0.52c-1.99-0.53-3.64-1.17-4.94-1.92c-1.3-0.75-2.32-1.58-3.08-2.5c-0.76-0.92-1.28-1.92-1.58-2.98
				c-0.3-1.06-0.45-2.19-0.45-3.37c0-1.38,0.27-2.63,0.82-3.76c0.55-1.13,1.33-2.1,2.34-2.9c1.01-0.81,2.23-1.43,3.64-1.87
				c1.41-0.44,2.98-0.66,4.71-0.66c1.05,0,2.03,0.09,2.94,0.26c0.91,0.17,1.79,0.45,2.62,0.82c0.83,0.37,1.64,0.86,2.43,1.45
				c0.79,0.59,1.57,1.29,2.36,2.11c0.28,0.33,0.43,0.64,0.44,0.93c0.01,0.29-0.18,0.6-0.56,0.93c-0.65,0.53-1.27,1.06-1.86,1.57
				c-0.59,0.52-1.2,1.09-1.83,1.72c-0.2,0.17-0.4,0.27-0.6,0.31c-0.2,0.04-0.39,0.04-0.57-0.01s-0.36-0.13-0.52-0.25
				c-0.17-0.12-0.32-0.26-0.45-0.42c-0.58-0.65-1.25-1.08-1.99-1.31c-0.75-0.22-1.45-0.34-2.09-0.34c-0.81,0-1.46,0.14-1.94,0.42
				c-0.48,0.28-0.71,0.72-0.67,1.3c0.03,0.43,0.19,0.77,0.49,1.01c0.29,0.24,0.65,0.44,1.07,0.59c0.42,0.15,0.87,0.27,1.35,0.36
				c0.47,0.09,0.91,0.2,1.31,0.31c1.5,0.48,2.87,1.01,4.11,1.57c1.25,0.57,2.33,1.26,3.24,2.08c0.91,0.82,1.62,1.81,2.13,2.95
				c0.51,1.15,0.76,2.54,0.76,4.19c0,1.65-0.33,3.12-0.98,4.41c-0.66,1.3-1.56,2.38-2.71,3.27c-1.15,0.88-2.5,1.55-4.08,2.02
				c-1.57,0.46-3.26,0.7-5.07,0.7c-1.03,0-2.08-0.09-3.14-0.27c-1.06-0.18-2.09-0.48-3.09-0.89c-1-0.41-1.94-0.93-2.84-1.57
				c-0.9-0.64-1.69-1.42-2.39-2.33c-0.18-0.23-0.32-0.48-0.41-0.74c-0.09-0.26-0.13-0.51-0.12-0.76c0.01-0.25,0.06-0.48,0.15-0.69
				c0.09-0.21,0.24-0.39,0.44-0.54l3.21-3.22c0.4-0.33,0.75-0.45,1.06-0.35C282.72,317.83,283.12,318.11,283.6,318.57z"/>
			<path class="st1" d="M309.65,291.83c0-0.51,0.17-0.9,0.51-1.16c0.34-0.26,0.83-0.5,1.46-0.74l5.66-1.97
				c0.08-0.02,0.16-0.02,0.24-0.02c0.07,0,0.15,0,0.21,0c0.61,0,1.03,0.18,1.23,0.54c0.21,0.36,0.31,0.83,0.31,1.41l-0.02,7.85h4.16
				c0.53,0,0.96,0.16,1.3,0.47s0.5,0.79,0.5,1.42v4.81c0,0.7-0.17,1.21-0.5,1.53c-0.33,0.32-0.76,0.49-1.3,0.49h-4.16l0.02,20.04
				c0,0.63-0.18,1.11-0.55,1.43c-0.37,0.32-0.87,0.49-1.52,0.49h-5.63c-1.28,0-1.92-0.64-1.92-1.92l-0.02-20.04h-1.82
				c-1.28,0-1.92-0.67-1.92-2.02v-4.81c0-1.26,0.64-1.89,1.92-1.89h1.82L309.65,291.83z"/>
			<path class="st1" d="M345.89,292.5c0-0.3,0.09-0.56,0.27-0.77c0.18-0.22,0.46-0.32,0.82-0.32h7.33c0.25,0,0.52,0.1,0.8,0.3
				c0.28,0.2,0.42,0.46,0.42,0.8v34.82c0,0.73-0.41,1.1-1.22,1.1h-7.33c-0.73,0-1.1-0.37-1.1-1.1V292.5z"/>
			<path class="st1" d="M363.18,297.21c0.22-0.18,0.44-0.3,0.68-0.35c0.24-0.05,0.47-0.07,0.69-0.07h3.76c0.3,0,0.56,0.05,0.77,0.16
				c0.22,0.11,0.4,0.25,0.55,0.44c0.15,0.18,0.27,0.39,0.36,0.62c0.09,0.23,0.18,0.47,0.26,0.72l0.77,3.18
				c0.25-0.51,0.55-1.1,0.91-1.75c0.36-0.65,0.83-1.27,1.42-1.84c0.59-0.57,1.33-1.05,2.22-1.44c0.89-0.39,2-0.58,3.33-0.58
				c2.13,0,3.99,0.45,5.58,1.36c1.59,0.9,2.91,2.12,3.94,3.64c0.31-0.51,0.75-1.06,1.3-1.65c0.55-0.59,1.2-1.13,1.97-1.63
				c0.76-0.5,1.64-0.91,2.63-1.23c0.99-0.32,2.08-0.48,3.28-0.48c1.89,0,3.59,0.36,5.07,1.09c1.49,0.73,2.75,1.72,3.79,2.98
				c1.04,1.26,1.83,2.73,2.37,4.41c0.54,1.68,0.81,3.48,0.81,5.39v16.33c0,0.63-0.14,1.11-0.41,1.43c-0.27,0.32-0.71,0.49-1.31,0.49
				h-5.76c-0.71,0-1.21-0.12-1.47-0.36c-0.27-0.24-0.4-0.71-0.4-1.41v-16.48c0-0.71-0.11-1.38-0.34-1.99
				c-0.23-0.61-0.54-1.15-0.93-1.61c-0.4-0.46-0.89-0.81-1.46-1.07s-1.21-0.39-1.91-0.39c-0.63,0-1.23,0.12-1.8,0.37
				c-0.57,0.25-1.06,0.59-1.5,1.03c-0.43,0.44-0.78,0.97-1.03,1.6c-0.26,0.62-0.39,1.31-0.39,2.06v16.33c0,0.63-0.14,1.11-0.41,1.43
				c-0.27,0.32-0.71,0.49-1.31,0.49h-0.52h-0.2h-5.04c-0.71,0-1.21-0.12-1.47-0.36c-0.27-0.24-0.4-0.71-0.4-1.41v-16.48
				c0-0.71-0.1-1.38-0.31-1.99c-0.21-0.61-0.51-1.15-0.9-1.61c-0.39-0.46-0.86-0.81-1.42-1.07s-1.18-0.39-1.88-0.39
				c-0.6,0-1.19,0.12-1.76,0.36c-0.57,0.24-1.09,0.58-1.54,1.02c-0.46,0.44-0.84,0.97-1.15,1.58c-0.31,0.61-0.49,1.3-0.54,2.04
				v16.45c0,0.28-0.05,0.57-0.16,0.85c-0.11,0.28-0.27,0.5-0.49,0.65c-0.22,0.13-0.42,0.22-0.61,0.27
				c-0.19,0.05-0.41,0.07-0.66,0.07h-5.63c-0.71,0-1.23-0.17-1.55-0.52s-0.47-0.81-0.47-1.4v-27.87c0-0.31,0.07-0.6,0.21-0.87
				c0.14-0.27,0.34-0.47,0.59-0.62L363.18,297.21z"/>
			<path class="st1" d="M416.3,297.06c0.22-0.18,0.44-0.3,0.67-0.35c0.23-0.05,0.46-0.08,0.67-0.08h3.76c0.32,0,0.58,0.05,0.79,0.15
				c0.21,0.1,0.38,0.24,0.51,0.41c0.13,0.17,0.25,0.37,0.34,0.6c0.09,0.22,0.18,0.47,0.26,0.74l1.05,3.02
				c0.46-0.6,0.93-1.21,1.41-1.83c0.47-0.62,1.04-1.19,1.68-1.69c0.65-0.51,1.42-0.93,2.32-1.26c0.9-0.33,1.99-0.5,3.29-0.5
				c2.28,0,4.37,0.42,6.29,1.26c1.92,0.84,3.57,1.99,4.96,3.46c1.39,1.47,2.47,3.2,3.25,5.18c0.78,1.99,1.17,4.13,1.17,6.44
				c0,2.29-0.39,4.44-1.17,6.43c-0.78,1.99-1.87,3.73-3.25,5.2c-1.39,1.47-3.04,2.63-4.96,3.48c-1.92,0.85-4.02,1.27-6.29,1.27
				c-1.08,0-2.01-0.13-2.79-0.39c-0.78-0.26-1.48-0.59-2.08-1.01c-0.61-0.42-1.14-0.87-1.61-1.37c-0.47-0.5-0.92-1-1.37-1.5v11.62
				c0,0.5-0.15,0.92-0.45,1.27c-0.3,0.35-0.76,0.52-1.4,0.52h-5.71c-0.2,0-0.42-0.04-0.65-0.12c-0.23-0.08-0.45-0.2-0.65-0.35
				c-0.2-0.15-0.37-0.34-0.5-0.56c-0.13-0.22-0.2-0.48-0.2-0.76v-37.86c0-0.33,0.06-0.61,0.19-0.82
				C415.96,297.44,416.12,297.25,416.3,297.06z M439.58,312.62c0-1.06-0.17-2.07-0.52-3.03c-0.35-0.95-0.84-1.79-1.47-2.5
				s-1.39-1.28-2.27-1.69c-0.88-0.42-1.85-0.62-2.92-0.62c-1.05,0-2.04,0.2-2.98,0.59c-0.94,0.39-1.76,0.92-2.47,1.59
				c-0.71,0.67-1.28,1.47-1.72,2.38c-0.44,0.91-0.69,1.89-0.74,2.92v0.37c0,1.1,0.21,2.13,0.62,3.09s0.98,1.8,1.7,2.5
				c0.71,0.71,1.55,1.27,2.52,1.68c0.96,0.42,1.99,0.62,3.07,0.62c1.06,0,2.04-0.21,2.92-0.62c0.88-0.42,1.64-0.98,2.27-1.68
				c0.63-0.71,1.12-1.54,1.47-2.5C439.41,314.74,439.58,313.71,439.58,312.62z"/>
			<path class="st1" d="M453.71,298.61c0-0.28,0.06-0.55,0.19-0.81c0.12-0.26,0.28-0.46,0.46-0.61c0.43-0.28,0.88-0.42,1.35-0.42
				h3.76c0.32,0,0.57,0.06,0.75,0.17c0.18,0.12,0.34,0.27,0.46,0.45c0.12,0.18,0.23,0.39,0.32,0.62c0.09,0.23,0.2,0.46,0.34,0.7
				c0.03,0.07,0.1,0.23,0.2,0.49c0.1,0.26,0.21,0.54,0.32,0.85c0.12,0.31,0.23,0.6,0.34,0.87c0.11,0.27,0.18,0.45,0.21,0.54
				c0.5-0.55,0.98-1.13,1.43-1.73c0.46-0.61,0.94-1.17,1.46-1.68c0.51-0.52,1.09-0.94,1.72-1.27s1.38-0.5,2.24-0.5
				c0.9,0,1.7,0.07,2.41,0.2c0.71,0.13,1.37,0.33,2.01,0.59s1.26,0.59,1.88,0.98c0.62,0.4,1.3,0.86,2.03,1.4
				c1.15,0.61,1.36,1.53,0.65,2.74l-2.27,3.86c-0.33,0.5-0.74,0.81-1.22,0.92c-0.48,0.12-1.01,0.04-1.57-0.22
				c-0.72-0.7-1.44-1.22-2.18-1.56c-0.74-0.34-1.58-0.51-2.53-0.51c-0.65,0-1.22,0.09-1.71,0.27c-0.49,0.18-0.93,0.44-1.33,0.77
				c-0.4,0.33-0.77,0.73-1.12,1.2c-0.35,0.47-0.7,0.98-1.05,1.55v18.05c0,0.63-0.15,1.11-0.46,1.43c-0.31,0.32-0.82,0.49-1.53,0.49
				h-5.61c-1.3,0-1.94-0.64-1.94-1.92V298.61z"/>
			<path class="st1" d="M506.51,324.63c-1.46,1.35-3.11,2.4-4.94,3.15c-1.83,0.76-3.76,1.13-5.81,1.13c-2.28,0-4.43-0.42-6.46-1.25
				c-2.03-0.83-3.81-1.98-5.33-3.45c-1.53-1.47-2.74-3.2-3.64-5.2c-0.9-1.99-1.35-4.16-1.35-6.51c0-1.46,0.18-2.88,0.54-4.25
				c0.36-1.37,0.86-2.65,1.52-3.85c0.66-1.2,1.45-2.3,2.39-3.3s1.99-1.87,3.15-2.58c1.16-0.71,2.43-1.27,3.79-1.67
				c1.36-0.4,2.8-0.6,4.31-0.6c1.38,0,2.72,0.18,4.01,0.55c1.3,0.37,2.51,0.88,3.65,1.55c1.14,0.66,2.18,1.46,3.13,2.39
				s1.76,1.95,2.44,3.05c0.68,1.11,1.21,2.28,1.58,3.54c0.37,1.25,0.56,2.55,0.56,3.88c0,0.86-0.01,1.57-0.04,2.12
				c-0.02,0.55-0.15,0.98-0.39,1.31c-0.23,0.32-0.62,0.55-1.16,0.67c-0.54,0.12-1.33,0.19-2.38,0.19h-17.95
				c0.17,1.06,0.5,1.95,1.01,2.67c0.51,0.71,1.09,1.28,1.76,1.71c0.66,0.42,1.37,0.73,2.12,0.91c0.75,0.18,1.45,0.27,2.12,0.27
				c0.6,0,1.21-0.06,1.84-0.19c0.63-0.12,1.24-0.29,1.83-0.5c0.59-0.21,1.13-0.45,1.62-0.72c0.49-0.27,0.88-0.56,1.18-0.86
				c0.27-0.22,0.49-0.38,0.69-0.49c0.19-0.11,0.39-0.16,0.61-0.16c0.22,0,0.44,0.07,0.66,0.22c0.22,0.15,0.48,0.37,0.76,0.65
				l2.64,2.99c0.18,0.22,0.3,0.41,0.35,0.59c0.05,0.17,0.08,0.35,0.08,0.54c0,0.33-0.09,0.62-0.27,0.86
				C506.97,324.24,506.75,324.45,506.51,324.63z M494.52,303.87c-0.65,0-1.28,0.13-1.88,0.39c-0.61,0.26-1.18,0.6-1.71,1.03
				c-0.53,0.43-1.01,0.92-1.43,1.47c-0.42,0.55-0.77,1.1-1.04,1.67h12.74c-0.35-0.65-0.73-1.25-1.13-1.8
				c-0.41-0.55-0.87-1.03-1.4-1.45c-0.52-0.42-1.12-0.74-1.79-0.97C496.2,303.98,495.41,303.87,494.52,303.87z"/>
			<path class="st1" d="M520.01,318.57c0.45,0.45,0.93,0.83,1.46,1.13c0.52,0.31,1.03,0.56,1.51,0.75c0.48,0.19,0.91,0.33,1.27,0.41
				c0.37,0.08,0.61,0.13,0.75,0.13c0.32,0,0.72-0.01,1.21-0.04c0.49-0.03,0.96-0.1,1.41-0.22c0.45-0.13,0.84-0.33,1.16-0.61
				c0.32-0.28,0.49-0.68,0.49-1.2c0-0.46-0.09-0.83-0.27-1.11s-0.45-0.51-0.8-0.7c-0.35-0.19-0.78-0.36-1.28-0.51
				c-0.51-0.15-1.08-0.32-1.71-0.52c-1.99-0.53-3.64-1.17-4.94-1.92s-2.32-1.58-3.08-2.5c-0.76-0.92-1.28-1.92-1.58-2.98
				s-0.45-2.19-0.45-3.37c0-1.38,0.27-2.63,0.82-3.76c0.55-1.13,1.33-2.1,2.34-2.9c1.01-0.81,2.23-1.43,3.64-1.87
				c1.41-0.44,2.98-0.66,4.71-0.66c1.05,0,2.03,0.09,2.94,0.26c0.91,0.17,1.79,0.45,2.62,0.82c0.83,0.37,1.64,0.86,2.43,1.45
				c0.79,0.59,1.57,1.29,2.36,2.11c0.28,0.33,0.43,0.64,0.44,0.93c0.01,0.29-0.18,0.6-0.56,0.93c-0.65,0.53-1.27,1.06-1.86,1.57
				c-0.59,0.52-1.2,1.09-1.83,1.72c-0.2,0.17-0.4,0.27-0.6,0.31c-0.2,0.04-0.39,0.04-0.57-0.01c-0.18-0.05-0.36-0.13-0.52-0.25
				c-0.17-0.12-0.32-0.26-0.45-0.42c-0.58-0.65-1.25-1.08-1.99-1.31c-0.75-0.22-1.45-0.34-2.09-0.34c-0.81,0-1.46,0.14-1.94,0.42
				c-0.48,0.28-0.71,0.72-0.67,1.3c0.03,0.43,0.2,0.77,0.49,1.01c0.29,0.24,0.65,0.44,1.07,0.59c0.42,0.15,0.87,0.27,1.35,0.36
				c0.47,0.09,0.91,0.2,1.31,0.31c1.5,0.48,2.87,1.01,4.11,1.57c1.25,0.57,2.33,1.26,3.24,2.08c0.91,0.82,1.62,1.81,2.13,2.95
				c0.51,1.15,0.76,2.54,0.76,4.19c0,1.65-0.33,3.12-0.98,4.41c-0.66,1.3-1.56,2.38-2.7,3.27c-1.15,0.88-2.51,1.55-4.08,2.02
				c-1.57,0.46-3.26,0.7-5.07,0.7c-1.03,0-2.08-0.09-3.14-0.27c-1.06-0.18-2.09-0.48-3.09-0.89c-1-0.41-1.94-0.93-2.84-1.57
				c-0.9-0.64-1.69-1.42-2.39-2.33c-0.18-0.23-0.32-0.48-0.41-0.74c-0.09-0.26-0.13-0.51-0.12-0.76s0.06-0.48,0.15-0.69
				c0.09-0.21,0.24-0.39,0.44-0.54l3.21-3.22c0.4-0.33,0.75-0.45,1.06-0.35C519.14,317.83,519.53,318.11,520.01,318.57z"/>
			<path class="st1" d="M548.88,318.57c0.45,0.45,0.93,0.83,1.46,1.13c0.52,0.31,1.03,0.56,1.51,0.75c0.48,0.19,0.91,0.33,1.27,0.41
				c0.37,0.08,0.61,0.13,0.75,0.13c0.32,0,0.72-0.01,1.21-0.04c0.49-0.03,0.96-0.1,1.41-0.22c0.45-0.13,0.84-0.33,1.16-0.61
				c0.32-0.28,0.49-0.68,0.49-1.2c0-0.46-0.09-0.83-0.27-1.11s-0.45-0.51-0.8-0.7c-0.35-0.19-0.78-0.36-1.28-0.51
				c-0.51-0.15-1.08-0.32-1.71-0.52c-1.99-0.53-3.64-1.17-4.94-1.92s-2.32-1.58-3.08-2.5c-0.76-0.92-1.28-1.92-1.58-2.98
				s-0.45-2.19-0.45-3.37c0-1.38,0.27-2.63,0.82-3.76c0.55-1.13,1.33-2.1,2.34-2.9c1.01-0.81,2.23-1.43,3.64-1.87
				c1.41-0.44,2.98-0.66,4.71-0.66c1.05,0,2.03,0.09,2.94,0.26c0.91,0.17,1.79,0.45,2.62,0.82c0.83,0.37,1.64,0.86,2.43,1.45
				c0.79,0.59,1.57,1.29,2.36,2.11c0.28,0.33,0.43,0.64,0.44,0.93c0.01,0.29-0.18,0.6-0.56,0.93c-0.65,0.53-1.27,1.06-1.86,1.57
				c-0.59,0.52-1.2,1.09-1.83,1.72c-0.2,0.17-0.4,0.27-0.6,0.31c-0.2,0.04-0.39,0.04-0.57-0.01c-0.18-0.05-0.36-0.13-0.52-0.25
				c-0.17-0.12-0.32-0.26-0.45-0.42c-0.58-0.65-1.25-1.08-1.99-1.31c-0.75-0.22-1.45-0.34-2.09-0.34c-0.81,0-1.46,0.14-1.94,0.42
				c-0.48,0.28-0.71,0.72-0.67,1.3c0.03,0.43,0.2,0.77,0.49,1.01c0.29,0.24,0.65,0.44,1.07,0.59c0.42,0.15,0.87,0.27,1.35,0.36
				c0.47,0.09,0.91,0.2,1.31,0.31c1.5,0.48,2.87,1.01,4.11,1.57c1.25,0.57,2.33,1.26,3.24,2.08c0.91,0.82,1.62,1.81,2.13,2.95
				c0.51,1.15,0.76,2.54,0.76,4.19c0,1.65-0.33,3.12-0.98,4.41c-0.66,1.3-1.56,2.38-2.7,3.27c-1.15,0.88-2.51,1.55-4.08,2.02
				c-1.57,0.46-3.26,0.7-5.07,0.7c-1.03,0-2.08-0.09-3.14-0.27c-1.06-0.18-2.09-0.48-3.09-0.89c-1-0.41-1.94-0.93-2.84-1.57
				c-0.9-0.64-1.69-1.42-2.39-2.33c-0.18-0.23-0.32-0.48-0.41-0.74c-0.09-0.26-0.13-0.51-0.12-0.76s0.06-0.48,0.15-0.69
				c0.09-0.21,0.24-0.39,0.44-0.54l3.21-3.22c0.4-0.33,0.75-0.45,1.06-0.35C548,317.83,548.4,318.11,548.88,318.57z"/>
			<path class="st1" d="M572.98,286.1c0-0.7,0.15-1.19,0.45-1.48c0.3-0.29,0.76-0.44,1.4-0.44h5.78c0.58,0,1.05,0.15,1.41,0.44
				c0.36,0.29,0.54,0.79,0.54,1.48v4.86c0,0.2-0.05,0.42-0.14,0.65c-0.09,0.23-0.22,0.46-0.39,0.67c-0.17,0.22-0.37,0.4-0.61,0.54
				c-0.24,0.14-0.51,0.21-0.81,0.21h-5.78c-1.23,0-1.84-0.69-1.84-2.07V286.1z M572.98,298.71c0-0.53,0.15-0.99,0.45-1.37
				c0.3-0.38,0.76-0.57,1.4-0.57h5.71c0.2,0,0.42,0.05,0.65,0.14c0.23,0.09,0.45,0.22,0.65,0.4c0.2,0.17,0.37,0.38,0.51,0.61
				c0.14,0.23,0.21,0.5,0.21,0.8v27.79c0,0.63-0.17,1.11-0.52,1.43c-0.35,0.32-0.85,0.49-1.5,0.49h-5.71
				c-1.23,0-1.84-0.64-1.84-1.92V298.71z"/>
			<path class="st1" d="M586.42,299.23c-0.33-0.68-0.4-1.26-0.19-1.74c0.21-0.48,0.7-0.72,1.48-0.72h6.38
				c0.43,0,0.81,0.12,1.13,0.35c0.32,0.23,0.55,0.57,0.69,1c0.28,0.88,0.59,1.87,0.93,2.97c0.34,1.1,0.7,2.22,1.07,3.38
				c0.37,1.16,0.74,2.3,1.11,3.44c0.36,1.14,0.7,2.19,1.01,3.14c0.31,0.96,0.58,1.79,0.82,2.49c0.24,0.71,0.42,1.21,0.54,1.51
				l5.28-16.92c0.22-0.53,0.46-0.89,0.74-1.07c0.27-0.18,0.66-0.27,1.16-0.27h6.56c0.48,0,0.85,0.06,1.1,0.17
				c0.25,0.12,0.42,0.27,0.5,0.47c0.08,0.2,0.1,0.43,0.05,0.69s-0.13,0.53-0.25,0.81l-11.86,28.44c-0.18,0.3-0.4,0.55-0.65,0.76
				c-0.25,0.21-0.62,0.31-1.12,0.31h-2.97c-0.66,0-1.13-0.1-1.41-0.29c-0.27-0.19-0.48-0.45-0.61-0.78L586.42,299.23z"/>
			<path class="st1" d="M645.09,324.63c-1.46,1.35-3.11,2.4-4.94,3.15c-1.83,0.76-3.76,1.13-5.81,1.13c-2.28,0-4.43-0.42-6.46-1.25
				c-2.03-0.83-3.81-1.98-5.33-3.45c-1.53-1.47-2.74-3.2-3.64-5.2c-0.9-1.99-1.35-4.16-1.35-6.51c0-1.46,0.18-2.88,0.54-4.25
				c0.36-1.37,0.86-2.65,1.52-3.85c0.66-1.2,1.45-2.3,2.39-3.3c0.94-1.01,1.99-1.87,3.15-2.58c1.16-0.71,2.43-1.27,3.79-1.67
				c1.36-0.4,2.8-0.6,4.31-0.6c1.38,0,2.72,0.18,4.01,0.55c1.3,0.37,2.51,0.88,3.65,1.55c1.14,0.66,2.18,1.46,3.13,2.39
				c0.95,0.93,1.76,1.95,2.44,3.05c0.68,1.11,1.21,2.28,1.58,3.54c0.37,1.25,0.56,2.55,0.56,3.88c0,0.86-0.01,1.57-0.04,2.12
				c-0.02,0.55-0.15,0.98-0.39,1.31c-0.23,0.32-0.62,0.55-1.16,0.67c-0.54,0.12-1.33,0.19-2.38,0.19h-17.95
				c0.17,1.06,0.5,1.95,1.01,2.67c0.51,0.71,1.09,1.28,1.76,1.71c0.66,0.42,1.37,0.73,2.12,0.91c0.75,0.18,1.45,0.27,2.12,0.27
				c0.6,0,1.21-0.06,1.84-0.19c0.63-0.12,1.24-0.29,1.83-0.5c0.59-0.21,1.13-0.45,1.62-0.72c0.49-0.27,0.88-0.56,1.18-0.86
				c0.27-0.22,0.49-0.38,0.69-0.49c0.19-0.11,0.39-0.16,0.61-0.16c0.22,0,0.44,0.07,0.66,0.22c0.22,0.15,0.48,0.37,0.76,0.65
				l2.64,2.99c0.18,0.22,0.3,0.41,0.35,0.59c0.05,0.17,0.08,0.35,0.08,0.54c0,0.33-0.09,0.62-0.27,0.86
				C645.55,324.24,645.34,324.45,645.09,324.63z M633.1,303.87c-0.65,0-1.28,0.13-1.88,0.39c-0.61,0.26-1.18,0.6-1.71,1.03
				c-0.53,0.43-1.01,0.92-1.43,1.47c-0.42,0.55-0.77,1.1-1.04,1.67h12.74c-0.35-0.65-0.73-1.25-1.13-1.8
				c-0.41-0.55-0.87-1.03-1.4-1.45c-0.52-0.42-1.12-0.74-1.79-0.97C634.78,303.98,634,303.87,633.1,303.87z"/>
			<path class="st1" d="M207.45,352.2c0.02-0.1,0.07-0.21,0.16-0.32c0.09-0.12,0.2-0.22,0.34-0.32c0.13-0.1,0.27-0.18,0.42-0.24
				s0.29-0.09,0.42-0.09h6.38c0.28,0,0.52,0.09,0.72,0.26c0.2,0.17,0.35,0.33,0.45,0.46l0.62,1.42l13.09,33.75
				c0.13,0.33,0.11,0.6-0.07,0.81c-0.18,0.21-0.5,0.31-0.95,0.31h-7.15c-0.38,0-0.68-0.07-0.89-0.21c-0.21-0.14-0.37-0.38-0.49-0.71
				c-0.33-0.85-0.66-1.69-0.97-2.53c-0.32-0.84-0.63-1.68-0.95-2.53h-13.24c-0.32,0.85-0.64,1.69-0.96,2.53
				c-0.32,0.84-0.64,1.68-0.96,2.53c-0.22,0.61-0.64,0.92-1.27,0.92h-7.35c-0.32,0-0.58-0.08-0.78-0.25
				c-0.21-0.17-0.25-0.42-0.11-0.75L207.45,352.2z M211.99,362.87c-0.32,0.85-0.64,1.76-0.96,2.74s-0.64,1.97-0.96,2.97
				c-0.32,1-0.64,1.98-0.96,2.95s-0.64,1.88-0.96,2.73h7.65L211.99,362.87z"/>
			<path class="st1" d="M228.89,359.05c-0.33-0.68-0.4-1.26-0.19-1.74c0.21-0.48,0.7-0.72,1.48-0.72h6.38
				c0.43,0,0.81,0.12,1.13,0.35c0.32,0.23,0.55,0.57,0.69,1c0.28,0.88,0.59,1.87,0.93,2.95c0.34,1.09,0.7,2.2,1.07,3.33
				c0.37,1.13,0.74,2.25,1.11,3.36c0.36,1.11,0.7,2.14,1.01,3.08c0.31,0.94,0.58,1.76,0.82,2.45c0.24,0.7,0.42,1.2,0.54,1.5
				l5.28-16.68c0.22-0.53,0.46-0.89,0.74-1.07c0.27-0.18,0.66-0.27,1.16-0.27h5.91c0.48,0,0.85,0.06,1.1,0.17
				c0.25,0.12,0.42,0.27,0.5,0.47c0.08,0.2,0.1,0.43,0.05,0.69c-0.05,0.26-0.13,0.53-0.25,0.81l-2.74,6.7
				c0.12,0.28,0.34,0.76,0.67,1.43s0.71,1.44,1.13,2.29c0.42,0.86,0.86,1.75,1.3,2.69c0.44,0.94,0.81,1.82,1.11,2.63l6.11-16.55
				c0.22-0.53,0.44-0.89,0.66-1.07c0.22-0.18,0.56-0.27,1.01-0.27h5.51c0.8,0,1.35,0.15,1.65,0.45c0.3,0.3,0.31,0.86,0.05,1.69
				l-11.69,28.44c-0.15,0.3-0.38,0.55-0.69,0.76c-0.31,0.21-0.75,0.31-1.33,0.31h-2.62c-0.65,0-1.12-0.1-1.42-0.31
				c-0.3-0.21-0.54-0.48-0.72-0.81l-4.64-11.32l-4.56,11.37c-0.18,0.3-0.4,0.55-0.65,0.76c-0.25,0.21-0.62,0.31-1.12,0.31h-2.97
				c-0.66,0-1.13-0.1-1.41-0.29c-0.27-0.19-0.48-0.45-0.61-0.78L228.89,359.05z"/>
			<path class="st1" d="M309.7,386.4c0,0.28-0.05,0.55-0.15,0.81c-0.1,0.26-0.27,0.46-0.5,0.61c-0.18,0.18-0.4,0.3-0.65,0.35
				c-0.25,0.05-0.46,0.07-0.65,0.07h-4.91c-0.35,0-0.63-0.05-0.85-0.14c-0.22-0.09-0.39-0.22-0.52-0.39
				c-0.13-0.17-0.25-0.37-0.34-0.61c-0.09-0.24-0.19-0.5-0.29-0.79l-0.72-1.87c-0.45,0.45-0.94,0.93-1.47,1.43
				c-0.53,0.51-1.12,0.98-1.76,1.41c-0.64,0.43-1.33,0.79-2.08,1.08c-0.75,0.29-1.54,0.44-2.39,0.44c-1.51,0-2.96-0.19-4.35-0.57
				s-2.68-0.93-3.89-1.63c-1.21-0.71-2.3-1.55-3.28-2.54c-0.98-0.99-1.82-2.09-2.53-3.3c-0.71-1.21-1.25-2.52-1.63-3.93
				s-0.57-2.87-0.57-4.4c0-2.31,0.42-4.46,1.27-6.44c0.85-1.99,2-3.71,3.47-5.18c1.46-1.47,3.18-2.62,5.16-3.46
				c1.98-0.84,4.1-1.26,6.36-1.26c1.03,0,1.98,0.15,2.84,0.46c0.86,0.31,1.65,0.71,2.36,1.21c0.71,0.5,1.35,1.06,1.92,1.69
				c0.57,0.63,1.08,1.27,1.53,1.92l0.97-3.02c0.17-0.42,0.3-0.75,0.41-1.01c0.11-0.26,0.22-0.45,0.35-0.57
				c0.12-0.12,0.28-0.21,0.46-0.25c0.18-0.04,0.44-0.06,0.77-0.06h3.71c0.18,0,0.4,0.02,0.65,0.08c0.25,0.05,0.46,0.17,0.65,0.35
				c0.23,0.18,0.4,0.39,0.5,0.62c0.1,0.23,0.15,0.5,0.15,0.8V386.4z M285.14,372.44c0,1.1,0.17,2.12,0.51,3.08
				c0.34,0.96,0.83,1.78,1.46,2.48c0.63,0.7,1.39,1.25,2.28,1.66c0.89,0.41,1.87,0.61,2.95,0.61c1.11,0,2.15-0.2,3.1-0.61
				c0.96-0.41,1.79-0.96,2.49-1.66c0.71-0.7,1.26-1.52,1.66-2.48s0.6-1.98,0.6-3.08c0-1.06-0.2-2.08-0.6-3.04
				c-0.4-0.96-0.95-1.81-1.66-2.54c-0.71-0.73-1.54-1.31-2.49-1.73c-0.96-0.42-1.99-0.63-3.1-0.63c-1.08,0-2.06,0.21-2.95,0.63
				c-0.89,0.42-1.65,1-2.28,1.73s-1.12,1.58-1.46,2.54C285.31,370.36,285.14,371.37,285.14,372.44z"/>
			<path class="st1" d="M315.68,358.43c0-0.28,0.06-0.55,0.19-0.81c0.12-0.26,0.28-0.46,0.46-0.61c0.43-0.28,0.88-0.42,1.35-0.42
				h3.76c0.31,0,0.56,0.06,0.75,0.17c0.18,0.12,0.34,0.27,0.46,0.45c0.13,0.18,0.23,0.39,0.32,0.62c0.09,0.23,0.2,0.46,0.34,0.7
				c0.03,0.07,0.1,0.23,0.2,0.49c0.1,0.26,0.21,0.54,0.32,0.85c0.12,0.31,0.23,0.6,0.34,0.87c0.11,0.27,0.18,0.45,0.21,0.54
				c0.5-0.55,0.98-1.13,1.43-1.73c0.46-0.61,0.94-1.17,1.46-1.68c0.51-0.52,1.09-0.94,1.72-1.27s1.38-0.5,2.24-0.5
				c0.9,0,1.7,0.07,2.41,0.2c0.71,0.13,1.37,0.33,2.01,0.59s1.26,0.59,1.88,0.98c0.62,0.4,1.3,0.86,2.03,1.4
				c1.15,0.61,1.36,1.53,0.65,2.74l-2.27,3.86c-0.33,0.5-0.74,0.81-1.22,0.92c-0.48,0.12-1.01,0.04-1.57-0.22
				c-0.72-0.7-1.44-1.22-2.18-1.56c-0.74-0.34-1.58-0.51-2.53-0.51c-0.65,0-1.22,0.09-1.71,0.27c-0.49,0.18-0.93,0.44-1.33,0.77
				c-0.4,0.33-0.77,0.73-1.12,1.2c-0.35,0.47-0.7,0.98-1.05,1.55v18.05c0,0.63-0.15,1.11-0.46,1.43c-0.31,0.32-0.82,0.49-1.53,0.49
				h-5.61c-1.3,0-1.94-0.64-1.94-1.92V358.43z"/>
			<path class="st1" d="M364.26,384.38c-0.45,0.45-0.94,0.93-1.48,1.45c-0.54,0.51-1.13,1-1.78,1.45c-0.65,0.45-1.35,0.82-2.09,1.11
				c-0.75,0.29-1.55,0.44-2.42,0.44c-2.26,0-4.34-0.42-6.24-1.27c-1.9-0.85-3.54-2.01-4.91-3.48c-1.37-1.47-2.44-3.2-3.22-5.2
				c-0.77-1.99-1.16-4.14-1.16-6.43c0-2.31,0.39-4.46,1.16-6.44c0.77-1.99,1.84-3.71,3.22-5.18c1.37-1.47,3.01-2.62,4.91-3.46
				c1.9-0.84,3.98-1.26,6.24-1.26c0.91,0,1.75,0.13,2.51,0.4c0.76,0.27,1.45,0.61,2.07,1.02c0.62,0.42,1.2,0.88,1.72,1.41
				c0.52,0.52,1.02,1.03,1.48,1.53v-11.39c0-0.53,0.16-0.98,0.49-1.35c0.32-0.37,0.81-0.55,1.46-0.55h5.61
				c0.22,0,0.44,0.05,0.69,0.14c0.24,0.09,0.46,0.22,0.66,0.39c0.2,0.17,0.36,0.37,0.49,0.6c0.13,0.23,0.19,0.49,0.19,0.77v37.26
				c0,1.28-0.67,1.92-2.02,1.92h-4.89c-0.33,0-0.59-0.04-0.77-0.12c-0.18-0.08-0.34-0.2-0.46-0.36c-0.12-0.16-0.24-0.36-0.34-0.6
				c-0.1-0.24-0.22-0.52-0.37-0.84L364.26,384.38z M349.93,372.44c0,1.1,0.17,2.12,0.51,3.08c0.34,0.96,0.83,1.78,1.46,2.48
				c0.63,0.7,1.39,1.25,2.28,1.66c0.89,0.41,1.87,0.61,2.95,0.61c1.06,0,2.06-0.19,3-0.57c0.94-0.38,1.76-0.91,2.46-1.58
				c0.7-0.67,1.26-1.47,1.68-2.38c0.42-0.91,0.66-1.89,0.71-2.94v-0.35c0-1.06-0.2-2.08-0.6-3.04c-0.4-0.96-0.95-1.81-1.66-2.54
				s-1.54-1.31-2.49-1.73c-0.96-0.42-1.99-0.63-3.1-0.63c-1.08,0-2.06,0.21-2.95,0.63c-0.89,0.42-1.65,1-2.28,1.73
				c-0.63,0.73-1.12,1.58-1.46,2.54C350.09,370.36,349.93,371.37,349.93,372.44z"/>
		</g>
	</g>
	
		<image style="overflow:visible;" width="29" height="297" xlink:href="../1x/blueSquiggleVert.png"  transform="matrix(0.963 0 0 0.963 130.063 104.7126)">
	</image>
</g>
</svg>
