<?xml version="1.0" encoding="utf-8"?>
<!-- Generator: Adobe Illustrator 22.0.1, SVG Export Plug-In . SVG Version: 6.00 Build 0)  -->
<svg version="1.1"
	 id="Layer_1" xmlns:cc="http://creativecommons.org/ns#" xmlns:dc="http://purl.org/dc/elements/1.1/" xmlns:inkscape="http://www.inkscape.org/namespaces/inkscape" xmlns:rdf="http://www.w3.org/1999/02/22-rdf-syntax-ns#" xmlns:sodipodi="http://sodipodi.sourceforge.net/DTD/sodipodi-0.dtd" xmlns:svg="http://www.w3.org/2000/svg"
	 xmlns="http://www.w3.org/2000/svg" xmlns:xlink="http://www.w3.org/1999/xlink" x="0px" y="0px" viewBox="0 0 28 93.8"
	 style="enable-background:new 0 0 28 93.8;" xml:space="preserve">
<style type="text/css">
	.st0{fill:#00CD75;}
</style>
<g transform="translate(0,-952.36216)">
	<path class="st0" d="M9.7,953.7c-1.9,0.8-3.4,2.3-4.6,3.6c-1.4,1.5-2.7,3.3-3.4,5.4c-1,2.9-1.2,6.1-1.1,9c0.1,2.5,0.5,5.1,1.6,7.5
		c0.8,1.9,2.2,3.2,3.1,4.5c1.1,1.7,2.3,3.3,3,4.9c0.3,0.8,0.5,1.6,0.6,2.5c0.5,5.3-0.4,10.8-0.8,16.3c-0.8,8.8-2.9,17.6-3.4,26.6
		c-0.1,1.3-0.4,2.9-0.6,4.5c-0.1,1.6-0.1,3.3,0.9,4.8c1.2,1.7,3.4,2.6,5.4,2.3c1.6-0.2,2.8-1.4,3.5-2.6c1.2-2,0.8-4.2,1-5.9
		c0.3-3.7,0.2-7.4,0.2-11c0.1-6.3,0.2-12.5,0-18.8l0,0c-0.2-5.3-0.3-8.3,1.3-15.6c0.4-1.9,2.5-4.2,4.1-6.4c1.2-1.6,3.4-2.9,4.6-5.2
		c1.4-2.5,2-5.4,2.2-8.2c0.2-3.3-0.3-6.6-1.3-9.7c-0.7-2.2-1.6-4.6-3.4-6.3c-1.8-1.7-4.1-2.6-6.4-3C13.9,952.7,11.7,952.9,9.7,953.7
		L9.7,953.7z M15.8,955c2,0.3,4,1.2,5.4,2.5c1.4,1.3,2.2,3.4,2.9,5.5c0.9,2.9,1.4,5.9,1.2,8.9c-0.2,2.6-0.8,5.2-2,7.4
		c-0.9,1.7-2.9,2.9-4.4,4.9c-1.6,2.1-3.9,4.4-4.5,7.1c-1.6,7.4-1.5,10.7-1.3,16c0.2,6.2,0.1,12.5,0,18.7c0,3.7,0.1,7.3-0.2,10.9
		c-0.2,2,0,3.9-0.7,5.1c-0.5,0.8-1.3,1.5-2,1.6c-1.2,0.1-2.8-0.5-3.5-1.5c-0.6-0.9-0.7-2.1-0.6-3.5s0.5-3,0.6-4.5
		c0.4-8.8,2.6-17.5,3.4-26.5c0.5-5.4,1.3-11,0.8-16.6c-0.1-1-0.3-2-0.7-3c-0.8-2-2.1-3.7-3.2-5.3c-1.1-1.6-2.4-2.9-2.9-4.2
		c-0.9-2.1-1.3-4.5-1.4-6.8c-0.1-2.8,0-5.7,0.9-8.3c0.6-1.7,1.7-3.3,3-4.7c1.2-1.3,2.4-2.5,3.9-3.1C12.3,954.8,14,954.7,15.8,955
		L15.8,955z"/>
</g>
</svg>
