<?xml version="1.0" encoding="utf-8"?>
<!-- Generator: Adobe Illustrator 22.0.1, SVG Export Plug-In . SVG Version: 6.00 Build 0)  -->
<svg version="1.1"
	 id="Layer_1" xmlns:cc="http://creativecommons.org/ns#" xmlns:dc="http://purl.org/dc/elements/1.1/" xmlns:inkscape="http://www.inkscape.org/namespaces/inkscape" xmlns:rdf="http://www.w3.org/1999/02/22-rdf-syntax-ns#" xmlns:sodipodi="http://sodipodi.sourceforge.net/DTD/sodipodi-0.dtd" xmlns:svg="http://www.w3.org/2000/svg"
	 xmlns="http://www.w3.org/2000/svg" xmlns:xlink="http://www.w3.org/1999/xlink" x="0px" y="0px" viewBox="0 0 20 92.4"
	 style="enable-background:new 0 0 20 92.4;" xml:space="preserve">
<style type="text/css">
	.st0{fill:#00CD75;}
</style>
<g transform="translate(0,-952.36216)">
	<path class="st0" d="M5.5,952.6c-0.4-0.1-0.8,0-1.2,0.2c-0.8,0.4-0.9,0.9-1.1,1.3s-0.3,0.8-0.3,0.8c0,0,0,0.1,0,0.1
		c0,0-1,4.9-1.7,10.9c-0.6,6-1,13.1,0.6,18c0.6,1.8,1.9,3,3,4c1.2,1.1,3,2.2,3.5,2.5l-1.4,30.9l-2.2,20.1c0,0.5,0.2,0.9,0.6,1l5,1.9
		c0.3,0.1,0.6,0.1,0.9-0.1l0.9-0.6c0.3-0.2,0.5-0.5,0.5-0.8l0.1-4.1c0,0,0,0,0,0l-0.2-17l1.3-31.7c0.2-0.2,0.6-0.7,1.3-1.5
		c0.8-1,1.8-2.2,2.3-3.3c0.7-1.3,1.1-2.7,1.3-4.1c1.3-8.6,0.9-16.1,0-25.9c-0.1-0.8-0.6-1.4-1-1.8c-0.4-0.3-0.9-0.9-1.9-0.7h0
		c-0.7,0.1-1,0.4-1.2,0.7c-0.2,0.2-0.4,0.5-0.4,0.5c-0.1,0.2-0.2,0.4-0.2,0.6v4.2l-0.5,17.1l-0.8,3.6h0l-0.1-0.7l-0.3-8.6
		c0-0.1,0.3-5.2,0.4-8.5c0-0.8,0.2-2,0.3-3.3c0.1-1.3,0.1-2.6-0.4-3.7c-0.2-0.4-0.5-0.8-0.8-1.1c-0.4-0.3-0.9-0.6-1.5-0.5
		c-0.6,0.1-0.9,0.4-1.1,0.7c-0.2,0.2-0.3,0.4-0.3,0.5c-0.3,0.4-0.5,0.8-0.6,1.2S7.8,956,7.8,956c0,0.1-0.1,0.2-0.1,0.4
		c0.2,7.6-0.6,14.1-0.9,21.2l-0.3-0.4l-0.2-3.6c0.2-5.9-0.2-12.2,0.9-17.9c0-0.1,0-0.1,0-0.2c0,0,0-0.4,0-0.8c-0.1-0.4,0-1-0.7-1.5
		C6.3,952.9,5.9,952.7,5.5,952.6L5.5,952.6z M5.1,954.6c-0.1,0,0.2,0.1,0.2,0c-0.2-0.2,0,0,0,0.3s0,0.5,0,0.5l0-0.2
		c-1.1,6-0.7,12.4-0.9,18.2c0,0,0,0.1,0,0.1l0.2,3.9c0,0.2,0.1,0.3,0.2,0.5l1,1.6c0.2,0.3,0.5,0.5,0.8,0.5h1.2c0.5,0,1-0.4,1-1
		c0.3-7.4,1.2-14.3,1-22.5c0-0.1,0.1-0.2,0.2-0.5c0.1-0.3,0.3-0.8,0.4-0.9c0-0.1,0-0.1,0.1-0.1c0.1,0.1,0.2,0.2,0.2,0.3
		c0.2,0.4,0.3,1.6,0.2,2.8c-0.1,1.2-0.2,2.4-0.3,3.4c-0.1,3.3-0.4,8.5-0.4,8.5c0,0,0,0.1,0,0.1l0.3,8.7c0,0.1,0,0.1,0,0.2l0.3,1.6
		c0.1,0.5,0.5,0.8,0.9,0.8l1.7,0.1c0.5,0,0.9-0.3,1-0.8l1-4.5c0-0.1,0-0.1,0-0.2l0.5-17.2c0,0,0,0,0,0v-3.8c0,0,0,0,0,0
		c0.1-0.1,0.4-0.2,0.1-0.1c0,0,0,0,0,0c-0.1,0,0.1,0,0.3,0.2c0.2,0.2,0.4,0.5,0.4,0.5c0.9,9.8,1.3,17.1,0,25.4
		c-0.2,1.2-0.5,2.4-1.1,3.5c-0.4,0.8-1.3,2-2.1,2.9s-1.5,1.7-1.5,1.7c-0.2,0.2-0.3,0.4-0.3,0.6l-1.3,32c0,0,0,0,0,0.1l0.2,17
		l-0.1,3.5l-0.1,0l-3.8-1.5l2.1-19.4c0,0,0,0,0-0.1l1.4-31.5c0-0.4-0.2-0.7-0.5-0.9c0,0-2.8-1.7-3.7-2.6c-1.1-1.1-2.2-2.1-2.5-3.2
		c-1.3-4.2-1.1-11.2-0.5-17.1c0.6-5.9,1.6-10.6,1.6-10.6c0,0,0.1-0.2,0.2-0.5C5,954.7,5.3,954.5,5.1,954.6L5.1,954.6z"/>
</g>
</svg>
