<?xml version="1.0" encoding="utf-8"?>
<!-- Generator: Adobe Illustrator 22.0.1, SVG Export Plug-In . SVG Version: 6.00 Build 0)  -->
<svg version="1.1" id="Layer_1" xmlns="http://www.w3.org/2000/svg" xmlns:xlink="http://www.w3.org/1999/xlink" x="0px" y="0px"
	 viewBox="0 0 80.2 80.2" style="enable-background:new 0 0 80.2 80.2;" xml:space="preserve">
<style type="text/css">
	.st0{enable-background:new    ;}
</style>
<g>
	<path d="M78.6,71.6L54.5,47.5c3.5-4.9,5.6-10.9,5.6-17.4c0-16.6-13.4-30-30-30c-16.6,0-30,13.4-30,30c0,16.6,13.4,30,30,30
		c6.5,0,12.5-2.1,17.4-5.6l24.1,24.1c2,2,5.1,2,7.1,0C80.6,76.7,80.6,73.5,78.6,71.6z M47.3,40.2c-1.7,2.9-4.1,5.3-7.1,7.1
		c-3,1.8-6.4,2.8-10.1,2.8c-11,0-20-9-20-20c0-11,9-20,20-20s20,9,20,20C50.1,33.8,49,37.2,47.3,40.2z"/>
</g>
</svg>
